<?xml version="1.0" standalone="no"?><!DOCTYPE svg PUBLIC "-//W3C//DTD SVG 1.1//EN" "http://www.w3.org/Graphics/SVG/1.1/DTD/svg11.dtd"><svg t="1640237328683" class="icon" viewBox="0 0 1026 1024" version="1.1" xmlns="http://www.w3.org/2000/svg" p-id="2065" xmlns:xlink="http://www.w3.org/1999/xlink" width="200.390625" height="200"><defs><style type="text/css"></style></defs><path d="M28.159032 268.80868H191.9934a28.159032 28.159032 0 0 0 0-56.318064H28.159032a28.159032 28.159032 0 0 0 0 56.318064z" p-id="2066"></path><path d="M0 487.681156m28.159032 0l163.834368 0q28.159032 0 28.159032 28.159032l0 0q0 28.159032-28.159032 28.159032l-163.834368 0q-28.159032 0-28.159032-28.159032l0 0q0-28.159032 28.159032-28.159032Z" p-id="2067"></path><path d="M220.152432 790.39075a28.159032 28.159032 0 0 0-28.159032-28.159032H28.159032a28.159032 28.159032 0 0 0 0 56.318064H191.9934a28.159032 28.159032 0 0 0 28.159032-28.159032zM712.935493 474.241618a145.275006 145.275006 0 0 0 37.118724-97.276656 150.39483 150.39483 0 0 0-302.069616 0 147.834918 147.834918 0 0 0 38.39868 97.276656 328.948692 328.948692 0 0 0-158.074567 251.511354 72.957492 72.957492 0 0 0 17.919384 58.237998 58.877976 58.877976 0 0 0 43.518504 20.479296h419.825569a60.157932 60.157932 0 0 0 44.158482-20.479296 74.877426 74.877426 0 0 0 17.279406-58.237998 327.028758 327.028758 0 0 0-158.074566-251.511354zM599.659387 291.20791a85.757052 85.757052 0 0 1 36.478746 163.19439l-36.478746 16.639428-35.838768-16.639428A86.39703 86.39703 0 0 1 511.982401 376.964962a85.757052 85.757052 0 0 1 87.676986-85.757052z m206.712894 447.9846H393.58647a12.79956 12.79956 0 0 1 0-7.679736A245.751552 245.751552 0 0 1 558.060817 512.00032l41.59857-10.879626L639.978001 512.00032a246.39153 246.39153 0 0 1 166.39428 218.232498 12.79956 12.79956 0 0 1 0 10.239648z" p-id="2068"></path><path d="M914.528563 0.017919h-703.975801a110.076216 110.076216 0 0 0-111.99615 106.876327V192.01132h98.556612a47.99835 47.99835 0 0 1 47.99835 47.358372 50.558262 50.558262 0 0 1-14.079516 34.558812 47.99835 47.99835 0 0 1-33.918834 14.079516H98.556612v179.833818h97.276656a54.39813 54.39813 0 0 1 34.558812 14.079516 47.99835 47.99835 0 0 1-33.278856 81.917184H98.556612v176.633928h97.916634a47.99835 47.99835 0 1 1 0 95.9967H98.556612v79.357272A110.076216 110.076216 0 0 0 210.552762 1023.982721h703.975801A109.436238 109.436238 0 0 0 1023.964801 915.826438V106.894246A109.436238 109.436238 0 0 0 914.528563 0.017919zM959.967001 915.826438a46.078416 46.078416 0 0 1-47.99835 42.878527h-703.975801a46.078416 46.078416 0 0 1-47.99835-42.878527v-15.359472h33.918834a111.99615 111.99615 0 0 0 0-223.9923h-31.358922V627.19636h35.838768A111.99615 111.99615 0 0 0 308.469396 512.00032a109.436238 109.436238 0 0 0-33.278856-76.79736 117.115974 117.115974 0 0 0-79.99725-32.638878h-32.638878v-47.99835h34.558812A111.99615 111.99615 0 0 0 276.470496 320.00692a111.99615 111.99615 0 0 0-79.357272-191.9934h-34.558812v-21.119274A46.078416 46.078416 0 0 1 210.552762 64.015719h703.975801a46.078416 46.078416 0 0 1 47.99835 42.878527z" p-id="2069"></path></svg>